<svg xmlns="http://www.w3.org/2000/svg" viewBox="0 0 1200 1500" role="img" aria-labelledby="title desc"><title id="title">Skater extension study</title><desc id="desc">Abstract silver-blue illustration of a figure skater extension on ice.</desc><defs><linearGradient id="bg" x1="0" y1="0" x2="1" y2="1"><stop offset="0" stop-color="#d7e2ec"/><stop offset=".48" stop-color="#91a3b6"/><stop offset="1" stop-color="#111822"/></linearGradient><radialGradient id="ice" cx="50%" cy="72%" r="52%"><stop offset="0" stop-color="#f7fbff" stop-opacity=".82"/><stop offset="1" stop-color="#7891aa" stop-opacity="0"/></radialGradient><filter id="soft"><feGaussianBlur stdDeviation="10"/></filter></defs><rect width="1200" height="1500" fill="url(#bg)"/><circle cx="655" cy="990" r="460" fill="url(#ice)"/><path d="M90 1160 C330 1035 650 1040 1110 880" fill="none" stroke="#f4fbff" stroke-opacity=".36" stroke-width="6"/><path d="M130 1210 C410 1095 720 1125 1130 1010" fill="none" stroke="#d7f2ff" stroke-opacity=".18" stroke-width="3"/><ellipse cx="620" cy="1125" rx="390" ry="54" fill="#06101a" opacity=".28" filter="url(#soft)"/><g transform="translate(615 690)"><path d="M0 0 C-75 88 -104 178 -86 270" fill="none" stroke="#07111c" stroke-width="54" stroke-linecap="round"/><path d="M-77 260 C-178 337 -272 395 -394 420" fill="none" stroke="#07111c" stroke-width="34" stroke-linecap="round"/><path d="M-70 248 C18 317 123 342 250 323" fill="none" stroke="#07111c" stroke-width="31" stroke-linecap="round"/><path d="M-18 70 C94 54 170 13 250 -58" fill="none" stroke="#07111c" stroke-width="27" stroke-linecap="round"/><path d="M-15 72 C-119 32 -188 -33 -250 -128" fill="none" stroke="#07111c" stroke-width="25" stroke-linecap="round"/><circle cx="4" cy="-56" r="54" fill="#07111c"/><path d="M-92 292 C-122 330 -152 351 -186 358" fill="none" stroke="#eaf7ff" stroke-width="8" stroke-linecap="round"/><path d="M244 327 C288 320 324 304 352 276" fill="none" stroke="#eaf7ff" stroke-width="8" stroke-linecap="round"/></g><rect x="0" y="0" width="1200" height="1500" fill="none" stroke="#eef8ff" stroke-opacity=".2" stroke-width="22"/></svg>