<svg xmlns="http://www.w3.org/2000/svg" viewBox="0 0 1600 900" role="img" aria-labelledby="title desc"><title id="title">Empty arena ice</title><desc id="desc">Wide abstract arena view with fresh ice and silver lights.</desc><defs><linearGradient id="bg" x1="0" y1="0" x2="0" y2="1"><stop offset="0" stop-color="#07111c"/><stop offset=".45" stop-color="#233142"/><stop offset="1" stop-color="#dceaf4"/></linearGradient><radialGradient id="light" cx="50%" cy="20%" r="60%"><stop offset="0" stop-color="#f5fbff" stop-opacity=".42"/><stop offset="1" stop-color="#f5fbff" stop-opacity="0"/></radialGradient></defs><rect width="1600" height="900" fill="url(#bg)"/><rect width="1600" height="900" fill="url(#light)"/><path d="M0 570 C300 520 618 540 820 586 C1055 640 1315 625 1600 560 L1600 900 L0 900Z" fill="#e9f4fb" opacity=".78"/><path d="M65 706 C350 642 637 650 915 716 C1120 765 1368 751 1530 690" fill="none" stroke="#7aa6bc" stroke-width="4" opacity=".48"/><path d="M126 790 C480 735 868 768 1492 744" fill="none" stroke="#ffffff" stroke-width="5" opacity=".55"/><g fill="#eef8ff" opacity=".72"><circle cx="335" cy="148" r="11"/><circle cx="525" cy="112" r="9"/><circle cx="760" cy="96" r="13"/><circle cx="1035" cy="112" r="9"/><circle cx="1240" cy="150" r="11"/></g></svg>