<svg xmlns="http://www.w3.org/2000/svg" viewBox="0 0 900 1200" role="img" aria-labelledby="title desc"><title id="title">Rink-side preparation</title><desc id="desc">Abstract rink-side composition with boot laces and cool arena light.</desc><defs><linearGradient id="bg" x1="0" y1="0" x2="0" y2="1"><stop offset="0" stop-color="#1a2634"/><stop offset=".55" stop-color="#dce7f0"/><stop offset="1" stop-color="#7c91a5"/></linearGradient><linearGradient id="blade" x1="0" y1="0" x2="1" y2="0"><stop offset="0" stop-color="#f8fdff"/><stop offset="1" stop-color="#8ebfd6"/></linearGradient></defs><rect width="900" height="1200" fill="url(#bg)"/><rect x="78" y="130" width="744" height="265" rx="34" fill="#f7fbff" opacity=".08"/><path d="M132 760 C265 670 485 660 705 706 C770 720 806 778 780 835 C725 953 462 970 268 925 C160 900 94 837 132 760Z" fill="#07111c"/><path d="M222 727 C326 695 504 697 678 734" fill="none" stroke="#e8f4fb" stroke-width="18" stroke-linecap="round" opacity=".9"/><path d="M260 817 C410 863 570 852 742 802" fill="none" stroke="url(#blade)" stroke-width="12" stroke-linecap="round"/><path d="M205 882 C372 943 590 941 814 880" fill="none" stroke="#f8fdff" stroke-opacity=".72" stroke-width="5"/><g stroke="#d6effb" stroke-width="10" stroke-linecap="round" opacity=".88"><path d="M342 710 L420 804"/><path d="M430 703 L356 808"/><path d="M500 710 L592 804"/><path d="M610 724 L508 816"/></g><path d="M60 1035 C250 1000 543 1018 840 965" fill="none" stroke="#ffffff" stroke-opacity=".42" stroke-width="6"/></svg>